<mxfile host="app.diagrams.net" modified="2024-05-25T18:24:55.322Z" agent="Mozilla/5.0 (X11; Linux x86_64; rv:126.0) Gecko/20100101 Firefox/126.0" version="24.4.7" etag="xFGK4oKWBEW2oWhEhrNE" type="github">
  <diagram name="Page-1" id="wBlTxJPQ87qgLKmhoKhc">
    <mxGraphModel>
      <root>
        <mxCell id="0" />
        <mxCell id="1" parent="0" />
      </root>
    </mxGraphModel>
  </diagram>
</mxfile>
